<?xml version="1.0" encoding="UTF-8" standalone="no"?>
<svg
   data-name="레이어 1"
   viewBox="0 0 100 125"
   x="0px"
   y="0px"
   version="1.1"
   id="svg75"
   sodipodi:docname="noun-camera.svg"
   inkscape:version="1.2.2 (b0a8486541, 2022-12-01)"
   xmlns:inkscape="http://www.inkscape.org/namespaces/inkscape"
   xmlns:sodipodi="http://sodipodi.sourceforge.net/DTD/sodipodi-0.dtd"
   xmlns="http://www.w3.org/2000/svg"
   xmlns:svg="http://www.w3.org/2000/svg"
   xmlns:rdf="http://www.w3.org/1999/02/22-rdf-syntax-ns#"
   xmlns:cc="http://creativecommons.org/ns#"
   xmlns:dc="http://purl.org/dc/elements/1.1/">
  <defs
     id="defs79">
    <inkscape:perspective
       sodipodi:type="inkscape:persp3d"
       inkscape:vp_x="0 : 62.5 : 1"
       inkscape:vp_y="0 : 1000 : 0"
       inkscape:vp_z="100 : 62.5 : 1"
       inkscape:persp3d-origin="50 : 41.666667 : 1"
       id="perspective156" />
  </defs>
  <sodipodi:namedview
     id="namedview77"
     pagecolor="#ffffff"
     bordercolor="#000000"
     borderopacity="0.25"
     inkscape:showpageshadow="2"
     inkscape:pageopacity="0.0"
     inkscape:pagecheckerboard="0"
     inkscape:deskcolor="#d1d1d1"
     showgrid="false"
     inkscape:zoom="6.304"
     inkscape:cx="49.968274"
     inkscape:cy="62.5"
     inkscape:window-width="1920"
     inkscape:window-height="1011"
     inkscape:window-x="0"
     inkscape:window-y="0"
     inkscape:window-maximized="1"
     inkscape:current-layer="svg75" />
  <title
     id="title61">대지 34</title>
  <path
     d="M79.05,33.69H36.53V31.47a1.94,1.94,0,0,0-1.93-1.93H24.69a1.93,1.93,0,0,0-1.93,1.93v2.22H21A1.93,1.93,0,0,0,19,35.61V68.53A1.94,1.94,0,0,0,21,70.46h58.1A1.94,1.94,0,0,0,81,68.53V35.61A1.93,1.93,0,0,0,79.05,33.69Zm-12.88,2.5h7.41v2.52H66.17ZM25.26,32H34v1.65H25.26Zm38.41,4.15v3.09a1.93,1.93,0,0,0,1.93,1.93h8.55a1.92,1.92,0,0,0,1.93-1.93V36.19h2.4v6.06H56.35a11.62,11.62,0,0,0-12.69,0H21.52V36.19ZM50,42.87a9.2,9.2,0,1,1-9.2,9.2A9.21,9.21,0,0,1,50,42.87ZM21.52,68V44.75H40.89a11.7,11.7,0,1,0,18.22,0H78.48V68Z"
     id="path63"
     style="fill:#ffffff" />
  <path
     d="M50,59.24a7.17,7.17,0,1,0-7.17-7.17A7.17,7.17,0,0,0,50,59.24ZM50,47.4a4.67,4.67,0,1,1-4.67,4.67A4.67,4.67,0,0,1,50,47.4Z"
     id="path65"
     style="fill:#ffffff" />
  <path
     d="M63.05,58.92A3.12,3.12,0,1,0,66.17,62,3.11,3.11,0,0,0,63.05,58.92Zm0,3.73a.61.61,0,0,1-.61-.62.61.61,0,0,1,.61-.61.61.61,0,0,1,.62.61A.62.62,0,0,1,63.05,62.65Z"
     id="path67"
     style="fill:#ffffff" />
  <path
     d="M34.09,61.27H24.18a1.92,1.92,0,0,0-1.93,1.93v2.15a1.93,1.93,0,0,0,1.93,1.93h9.91A1.94,1.94,0,0,0,36,65.35V63.2A1.93,1.93,0,0,0,34.09,61.27Zm-.57,3.51H24.75v-1h8.77Z"
     id="path69"
     style="fill:#ffffff" />
  <metadata
     id="metadata327">
    <rdf:RDF>
      <cc:Work
         rdf:about="">
        <dc:title>대지 34</dc:title>
      </cc:Work>
    </rdf:RDF>
  </metadata>
</svg>
