<?xml version="1.0" encoding="UTF-8" standalone="no"?>
<svg
   viewBox="0 0 100 125"
   version="1.1"
   x="0px"
   y="0px"
   id="svg19"
   sodipodi:docname="noun-badminton-racket-173041.svg"
   inkscape:version="1.2.2 (b0a8486541, 2022-12-01)"
   xmlns:inkscape="http://www.inkscape.org/namespaces/inkscape"
   xmlns:sodipodi="http://sodipodi.sourceforge.net/DTD/sodipodi-0.dtd"
   xmlns="http://www.w3.org/2000/svg"
   xmlns:svg="http://www.w3.org/2000/svg">
  <defs
     id="defs23">
    <inkscape:perspective
       sodipodi:type="inkscape:persp3d"
       inkscape:vp_x="0 : 62.5 : 1"
       inkscape:vp_y="0 : 1000 : 0"
       inkscape:vp_z="100 : 62.5 : 1"
       inkscape:persp3d-origin="50 : 41.666667 : 1"
       id="perspective247" />
  </defs>
  <sodipodi:namedview
     id="namedview21"
     pagecolor="#ffffff"
     bordercolor="#000000"
     borderopacity="0.25"
     inkscape:showpageshadow="2"
     inkscape:pageopacity="0.0"
     inkscape:pagecheckerboard="0"
     inkscape:deskcolor="#d1d1d1"
     showgrid="false"
     inkscape:zoom="6.336"
     inkscape:cx="50.031566"
     inkscape:cy="62.5"
     inkscape:window-width="1920"
     inkscape:window-height="1011"
     inkscape:window-x="0"
     inkscape:window-y="0"
     inkscape:window-maximized="1"
     inkscape:current-layer="svg19" />
  <g
     transform="translate(0,-952.36216)"
     id="g13"
     style="fill:#ffffff">
    <path
       style="fill:#ffffff"
       d="m 80.540108,982.25303 c -0.299606,-0.58139 -0.62301,-1.14555 -0.922771,-1.58078 -1.850244,-2.68734 -4.538185,-4.58056 -7.737321,-5.44968 -3.58731,-0.97458 -7.643384,-0.61157 -11.558177,1.03437 -0.579417,0.24357 -0.853099,0.37312 -1.567695,0.74138 -0.846262,0.43612 -1.290009,0.6924 -2.018801,1.16523 -4.185265,2.71544 -7.625065,6.87906 -9.494776,11.49243 -0.238611,0.58873 -0.37431,0.96766 -0.602844,1.6839 -0.289613,0.90765 -0.449638,1.51647 -0.613656,2.33453 -0.514662,2.5662 -0.539372,5.04669 -0.07404,7.40589 0.05069,0.2745 0.05434,0.2943 0.03151,0.3961 -0.01406,0.059 -0.04415,0.2717 -0.06808,0.4727 -0.217473,1.8474 -0.677089,4.0764 -1.326265,6.4323 -0.398637,1.4463 -1.017744,3.3938 -1.584831,4.9853 -0.603357,1.6856 -1.385121,3.641 -2.188138,5.5174 l -4.327044,5.0955 c -2.379818,2.8025 -4.34099,5.1035 -4.357791,5.1131 -0.0264,0.015 -0.04566,0.01 -0.145672,-0.077 -0.144158,-0.1182 -0.226443,-0.1521 -0.373552,-0.1533 -0.204976,-0 -0.439825,0.1074 -0.598559,0.2777 -0.154481,0.1658 -11.253459,13.3247 -11.979823,14.2022 l -0.198657,-0.1685 -1.095758,1.2922 3.414896,2.8961 1.095913,-1.2923 -0.187588,-0.1591 c 0.392047,-0.4441 1.892858,-2.2154 5.935911,-7.0037 3.284023,-3.8893 6.004554,-7.1149 6.045306,-7.1679 0.156993,-0.2037 0.211451,-0.362 0.202753,-0.5885 -0.0037,-0.097 -0.01131,-0.1244 -0.0602,-0.2178 -0.0473,-0.089 -0.07286,-0.1194 -0.147717,-0.1843 -0.05112,-0.042 -0.08968,-0.084 -0.08563,-0.094 0.0072,-0.011 1.90125,-2.2484 4.218365,-4.9761 l 4.213117,-4.9595 c 0.935283,-0.67 1.92749,-1.2992 2.929299,-1.9315 1.256816,-0.7664 2.192798,-1.2897 3.637741,-2.0344 1.630015,-0.8399 2.918005,-1.4422 4.578587,-2.1412 1.660535,-0.6989 3.582441,-1.412 4.92535,-1.8275 0.155263,-0.048 0.318447,-0.1059 0.3625,-0.1286 0.07742,-0.04 0.08968,-0.041 0.353664,-0.026 1.078272,0.06 2.183363,0.014 3.300659,-0.1362 4.004002,-0.5387 8.01444,-2.4277 11.386372,-5.3633 4.296429,-3.7404 7.243748,-8.87298 8.128324,-14.15481 0.533269,-3.18395 0.296358,-6.26622 -0.693594,-9.02334 -0.184903,-0.51416 -0.453004,-1.11672 -0.750198,-1.69934 l 0,0 z m -1.699485,0.81024 c 0.157306,0.30526 0.308611,0.59886 0.335094,0.67481 l 0.03399,0.0925 -0.09469,0.11078 c -0.05197,0.0608 -0.0992,0.1094 -0.104753,0.10763 -0.02148,-0.007 -1.778167,-1.49617 -1.789187,-1.51653 -0.0078,-0.015 0.01941,-0.0586 0.08949,-0.14214 0.620507,-0.74043 0.646696,-0.76938 0.674771,-0.74577 0.03003,0.0255 0.269218,0.38536 0.457519,0.68734 0.06972,0.11287 0.23893,0.42684 0.39792,0.73125 z m 0.536983,1.16678 c 0.02214,0.0428 0.05574,0.12871 0.05959,0.15856 -0.0018,0.0171 -0.02002,0.006 -0.06128,-0.027 -0.08428,-0.0655 -0.08797,-0.0746 -0.0525,-0.12243 0.01527,-0.0215 0.03339,-0.0375 0.04073,-0.0355 0.0013,0.003 0.0064,0.0121 0.01346,0.0264 l 0,0 z m -1.635769,-2.91073 c 0.0016,0.004 0.0021,0.007 0.0039,0.007 -0.0056,0.0102 -0.183731,0.22659 -0.400941,0.48315 -0.26268,0.31024 -0.402889,0.46585 -0.418782,0.46447 -0.03091,-0.003 -1.819659,-1.51042 -1.832323,-1.5444 -0.0093,-0.0188 0.09725,-0.15247 0.462942,-0.58638 0.259943,-0.30842 0.486104,-0.57192 0.502757,-0.58564 0.02823,-0.023 0.03616,-0.0197 0.10017,0.0368 0.352208,0.31099 0.695505,0.65502 1.024053,1.02605 0.244502,0.27606 0.531574,0.63492 0.5599,0.69745 z m 1.940558,3.78607 c 0.02907,0.0564 0.193877,0.63906 0.26633,0.94115 0.08268,0.34444 0.188759,0.88097 0.17982,0.90922 -0.01098,0.0339 -0.61305,0.74344 -0.633835,0.74669 -0.02048,0.003 -1.772066,-1.46941 -1.792916,-1.50741 -0.01269,-0.0222 0.08074,-0.13848 0.651614,-0.81283 0.366316,-0.4327 0.678414,-0.79309 0.693492,-0.80086 0.02334,-0.0121 0.07085,0.0229 0.320908,0.2343 0.161131,0.13677 0.302975,0.267 0.314587,0.28974 z m -0.905156,-0.78245 c 0.009,0.017 -1.356905,1.6274 -1.375119,1.62152 -0.01537,-0.005 -1.784841,-1.49195 -1.796209,-1.50972 -0.0025,-0.005 0.0034,-0.0224 0.01473,-0.0388 0.07214,-0.10463 1.344274,-1.59321 1.357805,-1.58884 0.01892,0.006 1.789867,1.49843 1.798819,1.5158 z m 1.422056,3.12743 c 0.03481,0.0469 0.133354,0.92861 0.107274,0.94204 -0.01003,0.005 -0.514041,-0.41477 -0.528722,-0.44079 -0.004,-0.008 0.08343,-0.12342 0.195451,-0.25642 0.111979,-0.13308 0.212363,-0.24407 0.223074,-0.24681 7.45e-4,-3.9e-4 4.3e-4,8.4e-4 0.0013,0.003 l 0,0 z m -4.415226,-8.16291 c 0.0074,0.0132 0.0054,0.034 -0.0094,0.0533 -0.10038,0.13289 -0.962293,1.13833 -0.977348,1.14 -0.01,9.3e-4 -0.389218,-0.3106 -0.841721,-0.69268 -0.45242,-0.38211 -0.859465,-0.72468 -0.904409,-0.76136 -0.04515,-0.0366 -0.08674,-0.0783 -0.09229,-0.093 -0.01035,-0.02 0.07097,-0.12281 0.387659,-0.49745 0.218964,-0.25906 0.406038,-0.47039 0.415705,-0.46963 0.03075,0.002 0.683643,0.37345 0.902799,0.513 0.396873,0.25285 1.063122,0.7339 1.118852,0.80787 z m 4.568803,9.61675 0.0085,0.3853 c 0.01266,0.57982 -0.0071,1.40262 -0.03552,1.47347 -0.02031,0.0505 -0.54974,0.66791 -0.567818,0.66209 -0.01623,-0.005 -1.698884,-1.41987 -1.708886,-1.43661 -0.0026,-0.005 0.03332,-0.0541 0.08058,-0.11014 0.723348,-0.86118 1.40366,-1.65879 1.412513,-1.65594 0.01216,0.003 0.441196,0.36405 0.692035,0.57978 l 0.118933,0.10194 z m -3.660852,-6.32986 c -0.01274,0.0325 -1.344817,1.59708 -1.364455,1.60252 -0.01376,0.004 -0.367681,-0.28538 -0.934019,-0.76235 -0.50174,-0.42261 -0.916065,-0.77416 -0.920607,-0.78135 -0.0038,-0.007 0.298679,-0.3766 0.673966,-0.82097 0.458425,-0.54279 0.689031,-0.80586 0.702644,-0.80154 0.03548,0.0117 1.847954,1.54937 1.842471,1.56369 z m 2.562379,5.42202 c -0.0067,0.0198 -1.459759,1.74076 -1.47708,1.74968 -0.0108,0.006 -1.783398,-1.47931 -1.802176,-1.51003 -0.0057,-0.008 -8.32e-4,-0.0271 0.0076,-0.0405 0.03803,-0.0551 1.447249,-1.71818 1.462737,-1.72616 0.02167,-0.0112 1.816696,1.50424 1.808521,1.52725 z M 73.406081,977.7975 c 0.01166,0.0226 -0.724208,0.89408 -0.748331,0.88633 -0.02654,-0.008 -1.791405,-1.49896 -1.795411,-1.51614 -0.0039,-0.007 0.03347,-0.0577 0.07885,-0.11063 0.05459,-0.0638 0.0911,-0.0956 0.108665,-0.0951 0.102875,0.003 0.922669,0.24761 1.316393,0.3927 0.461769,0.17014 1.022325,0.40889 1.039819,0.44283 z m 6.869161,13.59724 c 0.01649,0.005 -0.03339,0.41463 -0.05105,0.41737 -0.02048,0.003 -0.146277,-0.0998 -0.166348,-0.13667 -0.0114,-0.0212 0.0059,-0.0499 0.09675,-0.15484 0.0615,-0.071 0.115649,-0.12759 0.120917,-0.12598 z m -5.727823,-10.63492 c 0.01046,0.0206 -0.107442,0.16684 -0.652531,0.81124 -0.365831,0.43245 -0.675376,0.7939 -0.687915,0.80311 -0.01913,0.0141 -0.105624,-0.0536 -0.580437,-0.45403 -0.306636,-0.25896 -0.721126,-0.60879 -0.920984,-0.77734 -0.279793,-0.23594 -0.361482,-0.31183 -0.355383,-0.32985 0.0043,-0.0128 0.30803,-0.37831 0.674903,-0.8122 0.366882,-0.43388 0.672558,-0.7918 0.679302,-0.79528 0.01499,-0.008 1.825484,1.51905 1.843045,1.55435 z m 2.616381,5.47384 c 0.0013,0.003 0.0016,0.004 0.0026,0.005 -0.01036,0.0291 -1.468944,1.75486 -1.480041,1.75132 -0.02756,-0.009 -1.781523,-1.50023 -1.789177,-1.52121 -0.0093,-0.0186 0.157778,-0.22338 0.727789,-0.89817 0.405336,-0.47992 0.742371,-0.8709 0.74881,-0.86881 0.01047,-1.1e-4 0.41434,0.34361 0.906338,0.75896 0.63801,0.53875 0.864215,0.73593 0.884828,0.77266 z m 3.000871,6.02153 c 0.0025,0.005 0.0056,0.008 0.0061,0.0104 0.0086,0.0375 -0.09516,0.66682 -0.172702,1.04774 -0.134868,0.66176 -0.397433,1.69302 -0.428761,1.68376 -0.02126,-0.006 -1.340237,-1.12271 -1.352492,-1.14488 -0.0072,-0.0117 -0.0045,-0.029 7.74e-4,-0.0364 0.0071,-0.008 0.363263,-0.42986 0.791181,-0.93674 0.427829,-0.50683 0.78506,-0.92529 0.793721,-0.92975 0.02243,-0.0115 0.317734,0.24042 0.362332,0.30588 z m -0.644815,-0.54069 c 0.0013,0.003 0.0016,0.004 0.0016,0.004 -0.01024,0.0293 -1.563257,1.86678 -1.588389,1.87917 -0.01256,0.006 -0.310316,-0.23605 -0.866053,-0.70431 -0.466003,-0.39255 -0.850372,-0.71829 -0.854136,-0.72375 -0.0028,-0.006 0.01739,-0.0398 0.0472,-0.0763 0.331193,-0.40804 1.550241,-1.8317 1.564521,-1.8271 0.01177,0.002 0.397956,0.32613 0.861921,0.71756 0.603102,0.50884 0.815054,0.69392 0.834081,0.7294 z m -7.087179,-12.74297 c -0.0055,0.0165 -1.349132,1.60487 -1.364453,1.61277 -0.01673,0.009 -1.791894,-1.48109 -1.803575,-1.51314 -0.0064,-0.012 0.239825,-0.31351 0.662296,-0.81419 0.368334,-0.43657 0.67897,-0.79838 0.690132,-0.80413 0.01414,-0.007 0.281233,0.2101 0.919465,0.74946 0.494481,0.41793 0.897799,0.76408 0.896135,0.76923 z m 2.647759,5.48503 c 0.0039,0.007 -0.0053,0.0307 -0.02002,0.0512 -0.07961,0.11101 -1.441364,1.70816 -1.457927,1.70996 -0.0109,0.001 -0.06858,-0.0391 -0.128362,-0.0896 -0.0597,-0.0505 -0.466513,-0.3931 -0.903918,-0.76141 -0.43748,-0.36827 -0.799939,-0.68138 -0.805545,-0.69573 -0.01029,-0.0196 0.140667,-0.20462 0.72676,-0.89852 0.405276,-0.47984 0.74384,-0.86988 0.752365,-0.86683 0.02058,0.007 1.827158,1.53335 1.836296,1.55109 z m 2.446516,5.56617 c 0.0032,0.0262 -1.576266,1.90698 -1.597888,1.90041 -0.01761,-0.006 -1.785343,-1.49476 -1.796711,-1.51416 -0.004,-0.008 0.01355,-0.0411 0.04014,-0.0735 0.392713,-0.47477 1.538705,-1.81788 1.555311,-1.82269 0.02378,-0.007 1.788515,1.47393 1.798838,1.51012 z M 70.611847,976.8655 c 0.0029,0.007 0.0066,0.0129 0.0032,0.0262 -0.01,0.0462 -0.02665,0.0464 -0.08553,-3.9e-4 -0.06631,-0.0529 -0.06508,-0.0508 -0.02598,-0.0505 0.01643,0.001 0.05031,0.005 0.07582,0.0101 0.01981,0.004 0.031,0.007 0.03609,0.0128 l 0,0 z m -0.275225,0.33438 c 0.0065,0.0128 -0.214038,0.28438 -0.671688,0.82623 -0.3748,0.44385 -0.686099,0.80559 -0.691663,0.80382 -0.01522,-0.005 -1.743086,-1.46145 -1.753354,-1.4781 -0.0056,-0.008 0.134629,-0.18425 0.310142,-0.39181 l 0.319245,-0.37742 0.07494,-0.002 c 0.126136,-0.003 0.553563,0.0122 0.828296,0.0301 0.319787,0.0209 0.955982,0.0893 1.005646,0.10819 0.03952,0.0152 0.562005,0.44953 0.578165,0.4809 z m 2.613423,5.46174 c 0.01212,0.0251 -1.459888,1.76752 -1.486267,1.75909 -0.03307,-0.0109 -1.818778,-1.52079 -1.829827,-1.54775 -0.01047,-0.0206 0.127601,-0.19051 0.721704,-0.89483 0.40277,-0.47753 0.739747,-0.86923 0.748865,-0.87035 0.01881,-0.002 1.830483,1.52344 1.845525,1.55384 z m 6.503072,12.71524 c 0.01329,0.0256 -0.276887,0.88341 -0.318287,0.94113 -0.07487,0.10434 -1.064283,1.26133 -1.083521,1.26695 -0.01544,0.005 -0.30853,-0.23423 -0.891149,-0.72581 -0.47746,-0.40291 -0.869139,-0.73834 -0.870429,-0.74533 -0.0028,-0.006 0.373911,-0.45827 0.833672,-1.00276 0.517307,-0.61263 0.843154,-0.98766 0.854668,-0.98393 0.02891,0.009 1.461148,1.22278 1.475046,1.24975 z m -4.011815,-7.10294 c 8.6e-4,0.003 0.0014,0.003 0.0016,0.004 -0.01261,0.0349 -1.572366,1.87733 -1.591686,1.88034 -0.0184,0.003 -1.772551,-1.47117 -1.79334,-1.5074 -0.01171,-0.0228 0.09495,-0.15572 0.782321,-0.96866 0.636768,-0.75308 0.801966,-0.94097 0.821055,-0.9336 0.01308,0.005 0.421585,0.34541 0.90761,0.75633 0.689758,0.58331 0.861323,0.73339 0.873564,0.76757 z m 2.247766,5.61923 c -0.0065,0.0182 -1.659262,1.9752 -1.674925,1.98327 -0.0108,0.006 -1.696856,-1.40916 -1.713151,-1.4377 -0.004,-0.008 0.02806,-0.0582 0.0719,-0.11062 0.94853,-1.128 1.600283,-1.89146 1.611408,-1.88768 0.03444,0.0116 1.709521,1.43928 1.704739,1.45271 z m -6.873636,-13.02953 c 0.0104,0.0202 -1.444697,1.75527 -1.473495,1.75972 -0.01757,0.003 -1.799189,-1.49462 -1.804667,-1.51649 -0.0039,-0.007 0.325573,-0.40501 0.72807,-0.88187 0.402502,-0.47686 0.740819,-0.8696 0.751926,-0.8728 0.02303,-0.006 1.788119,1.47724 1.798166,1.51144 z m 2.551438,5.6495 c -0.0058,0.009 -0.363489,0.43761 -0.801016,0.95509 -0.614089,0.72631 -0.800117,0.93822 -0.815592,0.92905 -0.05175,-0.0309 -1.819517,-1.5312 -1.825762,-1.54986 -0.0061,-0.0107 0.0038,-0.0357 0.01775,-0.0536 0.05928,-0.0771 1.557788,-1.84629 1.56828,-1.8517 0.01657,-0.009 1.863072,1.55395 1.856298,1.57106 z m 5.337859,10.88655 c 0.0076,0.0143 -0.225429,0.52858 -0.243418,0.53785 -0.0133,0.007 -0.109202,-0.0606 -0.126165,-0.0894 -0.0057,-0.008 0.0026,-0.0323 0.01706,-0.0528 0.03125,-0.0436 0.330509,-0.39872 0.34009,-0.40365 0,0 0.01088,7.4e-4 0.01412,0.007 z m -3.00647,-5.19033 c -0.0086,0.0262 -1.664487,1.97815 -1.680015,1.98055 -0.01973,0.003 -1.772163,-1.47083 -1.792916,-1.50741 -0.01269,-0.0223 0.101281,-0.16304 0.822332,-1.01619 0.460303,-0.54466 0.843209,-0.98836 0.850895,-0.98592 0.03028,0.01 1.803893,1.51644 1.799704,1.52897 z m -6.971128,-13.1193 c 0.02056,0.0193 -0.05395,0.11096 -0.720799,0.90068 -0.407665,0.48277 -0.748073,0.87559 -0.756485,0.87297 -0.03248,-0.01 -1.727598,-1.44816 -1.737632,-1.47399 -0.01056,-0.0211 0.12344,-0.18609 0.721941,-0.89518 0.402954,-0.4774 0.739801,-0.86871 0.748593,-0.86966 0.01421,-0.001 1.695154,1.41036 1.744382,1.46518 z m -1.356275,-2.49068 c -0.0074,0.0205 -0.408291,0.49403 -0.426105,0.50322 -0.01832,0.009 -0.554004,-0.44075 -0.541219,-0.4544 0.0073,-0.007 0.135247,-0.019 0.289063,-0.03 0.395159,-0.0282 0.684543,-0.0363 0.678261,-0.0188 z m 10.905424,21.66941 c 0.02439,0.0473 -0.01102,0.10759 -0.1007,0.28464 -0.196062,0.38654 -0.456752,0.86838 -0.639534,1.18231 -0.23647,0.40608 -0.460836,0.77088 -0.471954,0.76728 -0.02253,-0.01 -0.564281,-0.4689 -0.570267,-0.4858 -0.0043,-0.01 0.331569,-0.41936 0.767537,-0.936 0.425732,-0.50456 0.78846,-0.9291 0.806069,-0.94341 0.0299,-0.0238 0.03751,-0.0214 0.106839,0.0335 0.05421,0.0438 0.08897,0.0683 0.101856,0.0975 z m -7.038173,-13.55926 c -0.0077,0.0238 -1.599022,1.89901 -1.608884,1.89583 -0.02013,-0.006 -1.827546,-1.53391 -1.839324,-1.5543 -0.0085,-0.0147 0.20176,-0.27281 0.78154,-0.95932 0.436226,-0.51655 0.799594,-0.9425 0.807509,-0.94658 0.0087,-0.004 0.02137,-0.002 0.02939,0.006 0.0042,0.009 0.424169,0.35859 0.924178,0.78071 0.50002,0.42213 0.907555,0.77217 0.905806,0.77777 z m 6.566129,13.17589 c -0.0067,0.0216 -1.570311,1.87782 -1.590384,1.88816 -0.0087,0.004 -0.06015,-0.0349 -0.119591,-0.0848 -0.05943,-0.0499 -0.451775,-0.38065 -0.872313,-0.73465 -0.420446,-0.35403 -0.767195,-0.64768 -0.77054,-0.65253 -0.0034,-0.005 0.002,-0.0207 0.01216,-0.0356 0.05618,-0.0813 1.57487,-1.86674 1.589331,-1.86833 0.02995,-0.003 1.758322,1.46523 1.751119,1.48786 z m -4.195461,-7.44315 c 0.0039,0.007 -0.373658,0.46162 -0.833597,1.00641 -0.686149,0.81285 -0.840041,0.98816 -0.85806,0.97752 -0.0438,-0.0257 -1.781571,-1.49562 -1.78522,-1.51006 -0.0039,-0.007 0.0071,-0.0292 0.02027,-0.0467 0.06886,-0.0915 1.633076,-1.93501 1.648564,-1.94299 0.01003,-0.005 0.02556,-0.004 0.03357,0.004 0.0042,0.009 0.410355,0.34692 0.893541,0.75478 0.483171,0.40786 0.879622,0.74866 0.880975,0.75743 z m -6.912914,-13.05604 c 0.0036,0.0283 -1.46465,1.76072 -1.485878,1.75389 -0.02521,-0.008 -1.727722,-1.44409 -1.742344,-1.46961 -0.0087,-0.0156 0.05513,-0.10049 0.245214,-0.32554 l 0.257248,-0.30462 0.16447,-0.038 c 0.482917,-0.11155 1.45328,-0.28293 1.695655,-0.29939 l 0.07229,-0.005 0.395663,0.33437 c 0.217657,0.18386 0.39657,0.34307 0.397714,0.35368 z m 2.411939,5.52341 c -0.0084,0.0266 -1.583252,1.87767 -1.602115,1.8832 -0.02553,0.008 -1.777498,-1.46296 -1.793214,-1.50573 -0.01042,-0.0203 0.144174,-0.20948 0.77343,-0.95503 0.430731,-0.51041 0.792958,-0.93307 0.804948,-0.93925 0.01665,-0.009 0.24639,0.17848 0.920869,0.74809 0.494461,0.41769 0.897762,0.76361 0.896082,0.76872 z m 6.657479,13.24291 c 0.0089,0.0167 -1.509256,1.82696 -1.573451,1.87889 -0.03066,0.0242 -0.03776,0.0187 -0.85147,-0.66782 -0.93157,-0.78625 -0.871945,-0.73559 -0.879537,-0.74748 -0.0026,-0.005 0.0021,-0.0201 0.01114,-0.0335 0.04528,-0.0655 1.576071,-1.8689 1.588172,-1.87078 0.0184,-0.003 1.698003,1.41609 1.704995,1.44069 z m -4.246165,-7.46237 c 0.0013,0.003 0.0017,0.004 0.0026,0.005 -0.01113,0.0295 -1.64069,1.95745 -1.665181,1.97007 -0.01003,0.005 -0.0525,-0.0201 -0.09507,-0.0556 -1.08411,-0.90716 -1.7624,-1.49155 -1.755143,-1.51205 0.0051,-0.0131 0.377003,-0.45943 0.827609,-0.99243 0.450606,-0.53302 0.829248,-0.97189 0.841423,-0.97527 0.01376,-0.004 0.353947,0.27388 0.938834,0.76782 0.673031,0.56827 0.888017,0.75575 0.906703,0.792 z m -4.507522,-7.55658 c 0.02084,0.0199 -1.56392,1.90313 -1.597793,1.90079 -0.02416,-0.002 -1.727116,-1.43189 -1.745894,-1.46647 -0.0086,-0.0152 0.197015,-0.2673 0.781345,-0.95911 0.43591,-0.5161 0.798641,-0.94148 0.806217,-0.94537 0.01164,-0.006 1.714567,1.41998 1.756125,1.47016 z m 6.755636,13.32906 c 0.01111,0.0196 -0.129057,0.19301 -0.780945,0.96643 -0.729026,0.86487 -0.796983,0.94161 -0.8241,0.92951 -0.03708,-0.0168 -1.761895,-1.47074 -1.778061,-1.49926 -0.0074,-0.0132 0.0062,-0.043 0.03666,-0.0802 0.2725,-0.33006 1.53366,-1.8148 1.547642,-1.822 0.0184,-0.009 1.771247,1.45757 1.798521,1.5056 z m 3.090459,6.33736 c 0.02699,0.052 -0.789731,1.1954 -1.364335,1.9069 -0.09995,0.1237 -0.190434,0.2316 -0.201184,0.2397 -0.01534,0.011 -0.10148,-0.054 -0.378991,-0.2852 -0.197729,-0.165 -0.365208,-0.3096 -0.372166,-0.3213 -0.0078,-0.015 0.01073,-0.049 0.06269,-0.1105 1.112338,-1.3192 1.635321,-1.9335 1.647907,-1.9355 0.01757,-0 0.587732,0.4729 0.606095,0.5059 z m -7.465165,-13.90945 c -0.0073,0.0225 -1.649152,1.96781 -1.66997,1.97854 -0.01164,0.006 -1.840989,-1.51928 -1.861996,-1.55309 -0.0024,-0.004 0.234692,-0.29175 0.527681,-0.63869 0.292994,-0.34697 0.670525,-0.79434 0.839041,-0.9942 0.234942,-0.27859 0.31194,-0.36152 0.329593,-0.3553 0.04492,0.0155 1.841276,1.54522 1.835651,1.56274 z m 6.575557,13.16285 c -2.28e-4,0.021 -1.658377,1.9911 -1.699767,2.0167 -0.02874,0.018 -0.08137,-0.025 -0.898688,-0.7137 -0.477633,-0.4028 -0.869841,-0.7392 -0.871415,-0.7476 -0.0039,-0.01 0.382281,-0.4717 0.85295,-1.02959 0.470761,-0.55793 0.862358,-1.01196 0.870351,-1.00912 0.02821,0.01 1.744143,1.46761 1.746569,1.48331 z M 64.971461,979.42974 c 0.0013,0.003 0.0016,0.004 0.0026,0.005 -0.0099,0.0298 -1.535619,1.83778 -1.576107,1.86762 -0.02904,0.0213 -0.05475,0.002 -0.895853,-0.70836 -0.475999,-0.40189 -0.86854,-0.74001 -0.87239,-0.75139 -0.0064,-0.012 0.288762,-0.3711 0.791111,-0.96611 0.438982,-0.51997 0.801423,-0.94427 0.805362,-0.94296 0.0013,0.003 0.400509,0.33437 0.881344,0.74013 0.624561,0.52716 0.844655,0.71926 0.864965,0.75578 l 0,0 z m 6.716202,13.29099 c 0.0013,0.003 0.0016,0.004 0.0026,0.005 -0.01382,0.0365 -1.573712,1.87491 -1.593557,1.87815 -0.0184,0.003 -1.801443,-1.49104 -1.806574,-1.5141 -0.0029,-0.007 0.356564,-0.43875 0.795971,-0.95913 0.439313,-0.52035 0.805662,-0.94359 0.814071,-0.94058 0.01135,0.001 0.416502,0.34472 0.907026,0.75926 0.643117,0.54354 0.862437,0.73496 0.881836,0.77116 z m -8.336292,-15.50658 c 9.23e-4,5.8e-4 0.0013,0.002 8.76e-4,0.004 -0.0079,0.0255 -0.141353,0.18508 -0.164429,0.19697 -0.01,0.005 -0.04772,-0.0149 -0.08491,-0.0441 -0.07418,-0.0581 -0.08428,-0.0695 -0.06931,-0.0773 0.0087,-0.004 0.08067,-0.0255 0.16739,-0.0503 0.0909,-0.0261 0.141528,-0.0358 0.150037,-0.0291 l 0,0 z m 3.910935,7.87668 c -0.0066,0.02 -1.625161,1.94157 -1.65965,1.97017 -0.02075,0.017 -0.117467,-0.0602 -0.915088,-0.73136 -0.490428,-0.41293 -0.895291,-0.76023 -0.899654,-0.77177 -0.0074,-0.013 0.275202,-0.35633 0.826838,-1.00969 0.543678,-0.64388 0.841661,-0.98646 0.854405,-0.98239 0.03921,0.0126 1.798335,1.50871 1.793149,1.52504 z m 6.663672,13.23406 c 0.0075,0.0138 -0.247631,0.32577 -0.844102,1.03286 -0.786528,0.93245 -0.856862,1.01195 -0.884041,0.99955 -0.04413,-0.02 -1.678495,-1.40261 -1.686802,-1.42689 -0.0065,-0.0125 0.295783,-0.38043 0.833983,-1.01916 0.462611,-0.54899 0.853381,-1.00277 0.868339,-1.00852 0.02212,-0.008 0.183102,0.12111 0.864703,0.69596 0.460599,0.38858 0.842299,0.71529 0.84792,0.7262 z M 62.93818,977.70483 c 0.0022,0.003 0.0026,0.005 0.002,0.006 -0.01099,0.032 -1.592466,1.89415 -1.605184,1.89012 -0.0279,-0.009 -1.323596,-1.11007 -1.320063,-1.12183 0.0058,-0.009 0.137374,-0.075 0.300885,-0.15083 0.512755,-0.23937 1.09525,-0.4821 1.598112,-0.66601 0.357865,-0.13087 0.681991,-0.23721 0.704526,-0.23111 0.03562,0.01 0.292712,0.23195 0.31972,0.27413 l 0,0 z m 6.664991,13.23805 c 0.004,0.008 -1.84e-4,0.0261 -0.0099,0.04 -0.0099,0.0135 -0.367508,0.43982 -0.795493,0.94657 -0.503847,0.5966 -0.784893,0.91907 -0.797511,0.91504 -0.02653,-0.008 -1.838034,-1.53542 -1.842541,-1.55297 -0.0029,-0.007 0.355706,-0.43921 0.794745,-0.95906 0.439057,-0.51984 0.805694,-0.94274 0.814738,-0.93971 0.02163,0.007 1.825957,1.53103 1.835853,1.55021 z m -4.434042,-7.62344 c 0.0076,0.014 -0.265791,0.34574 -0.828382,1.01202 -0.459291,0.54396 -0.838749,0.9878 -0.843287,0.98635 -0.01389,-0.004 -1.744227,-1.46303 -1.754141,-1.47857 -0.0056,-0.008 0.0363,-0.0686 0.09189,-0.13484 0.05547,-0.0662 0.433102,-0.5138 0.838995,-0.99449 0.619194,-0.73335 0.741871,-0.87207 0.76231,-0.86226 0.04648,0.0226 1.725921,1.44899 1.732614,1.4718 z m 6.770675,13.32655 c 0.0075,0.0133 -1.667252,2.00633 -1.706268,2.03124 -0.01584,0.0103 -0.234321,-0.16751 -0.919419,-0.74547 -0.494502,-0.41714 -0.897056,-0.76529 -0.894597,-0.77362 0.0056,-0.0102 0.387088,-0.4683 0.854706,-1.0221 0.46762,-0.55378 0.854317,-1.00892 0.859312,-1.0115 0.01003,-0.005 1.794521,1.49865 1.806266,1.52145 z m 3.101028,6.59921 c -0.0074,0.022 -0.379509,0.4437 -0.636769,0.7207 -0.489296,0.5269 -1.178863,1.2065 -1.213692,1.1962 -0.02608,-0.01 -0.589163,-0.4814 -0.604166,-0.5083 -0.0087,-0.016 0.20645,-0.2792 0.845967,-1.0367 0.471632,-0.5587 0.862035,-1.0145 0.867609,-1.0127 0.03173,0.01 0.745474,0.6271 0.741051,0.6408 z m -7.569258,-14.09161 c 0.0026,0.0278 -1.579726,1.90087 -1.600524,1.89426 -0.03272,-0.0103 -1.848558,-1.5526 -1.844101,-1.56603 0.0058,-0.009 0.361954,-0.43689 0.798725,-0.954 0.680597,-0.80586 0.79756,-0.93845 0.818911,-0.92772 0.05122,0.0258 1.824872,1.53382 1.826989,1.55349 z m 6.542173,13.22571 c -0.0096,0.027 -1.68827,2.0091 -1.710566,2.0201 -0.0133,0.01 -0.29417,-0.2219 -0.884514,-0.7199 -0.475607,-0.4014 -0.868042,-0.7391 -0.871983,-0.7504 -0.0064,-0.012 0.306041,-0.3914 0.842024,-1.026 0.466912,-0.553 0.858507,-1.0064 0.870272,-1.0077 0.02897,-0 1.762511,1.4625 1.754767,1.4839 z M 63.140595,981.60865 c -0.0068,0.0194 -1.655826,1.97288 -1.673146,1.9818 -0.01748,0.009 -1.768252,-1.47039 -1.762133,-1.48938 0.0056,-0.0102 0.376385,-0.45533 0.830464,-0.99326 0.454086,-0.53792 0.834223,-0.98043 0.844803,-0.98342 0.02378,-0.007 1.767052,1.46336 1.760012,1.48426 z m 6.715969,13.29013 c -0.0064,0.0168 -1.680349,1.99912 -1.706753,2.02112 -0.01118,0.009 -0.281266,-0.20932 -0.91084,-0.73887 -0.492045,-0.4138 -0.897531,-0.76069 -0.901277,-0.77083 -0.0043,-0.01 0.364873,-0.45842 0.84439,-1.02615 0.468058,-0.55416 0.859711,-1.00848 0.870289,-1.00964 0.02693,-0.003 1.811554,1.50512 1.804191,1.52437 z m -4.529103,-7.55857 c 0.01593,0.0294 -0.03456,0.0924 -0.777979,0.9732 -0.43717,0.51797 -0.801191,0.93979 -0.808887,0.93735 -0.01784,-0.006 -1.785572,-1.4956 -1.797017,-1.51455 -0.004,-0.008 0.247404,-0.31761 0.56043,-0.68826 0.312961,-0.3706 0.670565,-0.79403 0.794542,-0.94086 0.123959,-0.14684 0.234824,-0.26795 0.246262,-0.2691 0.02511,-0.002 1.758632,1.45807 1.782649,1.50222 z m 6.647371,13.30349 c 0.009,0.017 -1.70252,2.0495 -1.720979,2.0436 -0.03014,-0.01 -1.683756,-1.4132 -1.693382,-1.4372 -0.01051,-0.021 0.145853,-0.2122 0.836151,-1.0296 0.465798,-0.55166 0.855833,-1.00544 0.866537,-1.0084 0.01751,-0.005 1.693723,1.3968 1.711673,1.4316 z M 61.105396,979.87655 c 0.0042,0.009 -1.630667,1.95378 -1.669986,1.98607 -0.02529,0.0204 -1.633731,-1.33779 -1.62268,-1.37034 0.0043,-0.0128 0.297707,-0.36726 0.651913,-0.78749 l 0.643891,-0.76397 0.270761,-0.14586 c 0.252296,-0.13528 0.272472,-0.14462 0.296346,-0.12793 0.03962,0.0278 1.423999,1.19833 1.429686,1.20938 z m 6.647191,13.24113 c 0.0147,0.0273 -0.05535,0.11465 -0.820254,1.02145 -0.459963,0.54533 -0.847076,1.0011 -0.860331,1.01301 -0.02246,0.02 -0.07957,-0.0255 -0.723449,-0.56893 -0.384717,-0.32479 -0.799341,-0.67467 -0.921365,-0.77747 -0.122436,-0.1026 -0.223075,-0.19278 -0.224521,-0.20007 -0.0029,-0.007 0.378399,-0.46472 0.843961,-1.01634 0.465569,-0.55164 0.855454,-1.00777 0.866449,-1.01344 0.01422,-0.007 0.286248,0.21431 0.921687,0.75072 0.495929,0.41869 0.908778,0.77474 0.917823,0.79107 z m -4.490356,-7.5296 c 0.0065,0.0125 -1.564138,1.88347 -1.59395,1.89883 -0.0087,0.004 -0.0681,-0.0382 -0.134714,-0.0937 -0.734075,-0.61407 -1.625316,-1.37096 -1.628225,-1.38274 -0.0039,-0.007 0.353671,-0.43823 0.790367,-0.95571 0.436614,-0.51742 0.801234,-0.94155 0.8101,-0.94255 0.01598,-0.002 1.743135,1.44946 1.756673,1.47573 z m 6.725212,13.37494 c 0.0091,0.0175 -1.709899,2.04368 -1.728563,2.03748 -0.02667,-0.01 -1.791215,-1.49918 -1.795211,-1.51613 -0.0039,-0.007 0.381789,-0.47143 0.85259,-1.02927 0.470708,-0.55781 0.862764,-1.01197 0.871234,-1.00926 0.01759,0.006 1.791617,1.50101 1.79995,1.51718 z m 2.932233,6.45938 c -0.0075,0.022 -0.505927,0.4578 -0.813452,0.7105 -0.492658,0.4048 -1.222335,0.9536 -1.254274,0.9434 -0.01761,-0.01 -0.186081,-0.1415 -0.195043,-0.1572 -0.0026,-0 0.03145,-0.051 0.07558,-0.1041 1.218221,-1.4486 1.599536,-1.8919 1.62058,-1.884 0.04297,0.016 0.571869,0.475 0.56662,0.4914 z m -7.285982,-14.0851 c 0.0013,0.003 0.0016,0.004 0.0016,0.004 -0.01504,0.0322 -1.706181,2.03226 -1.71592,2.02912 -0.02015,-0.006 -1.844436,-1.55155 -1.847121,-1.56434 -0.0029,-0.007 0.382604,-0.47085 0.85381,-1.02893 0.471197,-0.55809 0.862812,-1.0127 0.870402,-1.01025 0.01088,7.4e-4 0.426686,0.35284 0.931302,0.77857 0.668102,0.56358 0.887961,0.75499 0.906464,0.79071 z m 6.425271,13.3568 c -0.0062,0.019 -1.657529,1.9743 -1.674013,1.9828 -0.01657,0.01 -1.766654,-1.4718 -1.761128,-1.4899 0.0056,-0.01 0.3761,-0.4551 0.830262,-0.993 0.45407,-0.538 0.834383,-0.9805 0.845046,-0.9836 0.02378,-0.01 1.767075,1.4626 1.759833,1.4837 z M 61.205808,983.85712 c 0.01516,0.0293 -0.03607,0.0937 -0.777643,0.9728 -0.437234,0.51808 -0.802102,0.9397 -0.810975,0.93701 -0.0327,-0.0103 -1.72683,-1.44729 -1.737084,-1.47373 -0.01064,-0.0216 0.130687,-0.19495 0.784046,-0.96879 0.437016,-0.51764 0.801178,-0.93901 0.809119,-0.93628 0.03054,0.0103 1.716082,1.43973 1.732537,1.46899 z m 6.689973,13.35791 c 0.0013,0.003 0.0016,0.004 0.0016,0.004 -0.03339,0.06 -1.70791,2.02501 -1.721817,2.02072 -0.02029,-0.007 -1.783422,-1.49289 -1.794627,-1.51338 -0.004,-0.008 0.301686,-0.38183 0.680395,-0.83039 0.378708,-0.44858 0.764641,-0.9056 0.857858,-1.01577 0.100303,-0.11852 0.176554,-0.19778 0.187005,-0.19408 0.01177,0.002 0.419025,0.34535 0.909815,0.75979 0.625387,0.52816 0.860042,0.73273 0.880161,0.76831 z m -4.385991,-7.67807 c -0.0058,0.009 -0.387778,0.46777 -0.856205,1.02264 -0.540191,0.63981 -0.858777,1.00664 -0.870893,1.00276 -0.0251,-0.008 -1.773415,-1.48 -1.78939,-1.50649 -0.0079,-0.0157 0.205678,-0.2781 0.845871,-1.03617 0.471987,-0.55881 0.864374,-1.01398 0.872054,-1.01153 0.0304,0.01 1.802695,1.51595 1.798563,1.52879 z m -5.346147,-10.02824 c 0.0011,0.002 0.0026,0.005 -0.005,0.0137 -0.02725,0.0431 -0.611901,0.73298 -0.628058,0.7413 -0.01414,0.007 -0.208826,-0.14177 -0.231078,-0.17717 -0.0057,-0.008 0.0085,-0.0286 0.02983,-0.0445 0.129691,-0.0965 0.717013,-0.47952 0.797058,-0.51994 0.02359,-0.0116 0.03495,-0.0159 0.03749,-0.013 z m 11.848842,23.44248 c 0.01812,0.015 -0.120694,0.1834 -0.812066,1.0017 -0.456406,0.5402 -0.837275,0.9882 -0.846302,0.9957 -0.01201,0.01 -0.264226,-0.1951 -0.867367,-0.7028 -0.468005,-0.394 -0.852493,-0.723 -0.854336,-0.7313 -0.0039,-0.01 0.370376,-0.458 0.827103,-0.9994 0.456719,-0.5414 0.836826,-0.9876 0.844719,-0.9917 0.01164,-0.01 1.650894,1.3639 1.708249,1.4278 z m -10.8349,-20.80797 c 0.01325,0.0253 -1.57299,1.90886 -1.600002,1.9002 -0.0263,-0.008 -1.607276,-1.34086 -1.611562,-1.35798 -0.0029,-0.007 0.35378,-0.43782 0.790541,-0.95536 0.436853,-0.51756 0.801543,-0.94199 0.810554,-0.94311 0.01881,-0.002 1.594356,1.32501 1.610469,1.35625 z m 6.634183,13.30286 c 0.0015,0.0219 -1.682017,2.02062 -1.710159,2.02943 -0.02086,0.007 -1.838605,-1.51611 -1.849925,-1.54972 -0.0043,-0.01 0.36867,-0.46293 0.844442,-1.02628 0.467975,-0.55412 0.859227,-1.0084 0.869405,-1.00951 0.02221,-0.002 1.842389,1.53163 1.846237,1.55608 z m -4.391802,-7.67463 c 0.0019,0.0237 -1.687619,2.02428 -1.71318,2.02826 -0.02132,0.004 -1.740791,-1.43713 -1.753002,-1.4688 -0.0064,-0.0122 0.299292,-0.38401 0.849302,-1.03544 0.471454,-0.55842 0.863348,-1.0131 0.870787,-1.01033 0.03132,0.0118 1.744397,1.46973 1.746093,1.48631 z m 6.614575,13.51594 c -0.01097,0.034 -1.677444,1.9872 -1.691636,1.9827 -0.02398,-0.01 -1.773139,-1.4804 -1.789064,-1.5068 -0.0071,-0.011 -0.0045,-0.029 -1.4e-5,-0.036 0.0071,-0.01 0.379619,-0.4496 0.827693,-0.9806 0.447993,-0.5309 0.82413,-0.97016 0.835785,-0.97617 0.01581,-0.008 0.259559,0.19053 0.920423,0.74887 0.494545,0.4178 0.897878,0.7636 0.89641,0.7683 z M 57.280036,980.54734 c -5.37e-4,0.0196 -1.557821,1.87835 -1.58847,1.89415 -0.01256,0.006 -0.657904,-0.52315 -0.678533,-0.55644 -0.0056,-0.008 0.03147,-0.0514 0.08116,-0.0967 0.16014,-0.14598 0.637574,-0.54756 0.91159,-0.7667 0.293193,-0.23447 0.961006,-0.73624 0.978033,-0.7349 0.02196,0.002 0.294125,0.24122 0.296221,0.26064 z m 6.404772,13.09736 c 0.0062,0.0111 -0.04239,0.0672 -0.898729,1.0815 -0.442141,0.52366 -0.810774,0.95311 -0.819167,0.95442 -0.0184,0.003 -1.836175,-1.52612 -1.845998,-1.55294 -0.0061,-0.0106 0.336531,-0.4263 0.839886,-1.02263 0.465785,-0.55182 0.855915,-1.00789 0.866825,-1.01351 0.01414,-0.007 0.298789,0.22576 0.9326,0.76187 0.502022,0.42459 0.916019,0.77879 0.920249,0.78699 0.0013,0.003 0.0014,0.003 0.0026,0.005 z m 6.853648,13.6444 c 0.0016,0 0.0031,0.01 0.0042,0.01 -0.0056,0.01 -0.08997,0.072 -0.193024,0.1398 -0.103052,0.068 -0.209407,0.1394 -0.236292,0.1586 -0.07951,0.057 -0.0496,0.01 0.128557,-0.2007 0.09067,-0.1074 0.170511,-0.1981 0.177432,-0.2016 0.01581,-0.01 0.103984,0.063 0.120864,0.093 l 0,0 z M 59.379659,986.04232 c 0.0063,0.0118 -0.295883,0.38001 -0.848563,1.03462 -0.472004,0.559 -0.861895,1.0151 -0.866434,1.01365 -0.01177,-0.002 -1.753481,-1.47405 -1.759693,-1.48465 -0.0016,-0.004 0.381664,-0.46512 0.853476,-1.02407 0.72852,-0.86302 0.861943,-1.01479 0.884678,-1.00648 0.03132,0.0118 1.722775,1.44021 1.736536,1.46693 z m 10.756316,20.91128 c 0.006,0.01 -0.224502,0.2933 -0.518605,0.6426 l -0.524332,0.6227 -0.291788,0.1644 c -0.160654,0.09 -0.354656,0.1948 -0.43139,0.2318 l -0.139306,0.068 -0.733124,-0.618 c -0.403253,-0.3399 -0.738175,-0.6269 -0.744401,-0.6378 -0.0084,-0.014 0.218738,-0.2922 0.806662,-0.9887 0.449814,-0.5329 0.824658,-0.9669 0.832763,-0.9643 0.02878,0.01 1.737987,1.46 1.743561,1.4798 z m -4.206496,-7.44531 c 0.01519,0.0295 -0.04414,0.10053 -0.812601,1.01051 -0.458158,0.5425 -0.840863,0.9876 -0.850518,0.9891 -0.02048,0 -1.771662,-1.4694 -1.792188,-1.5074 -0.01165,-0.0225 0.105145,-0.16721 0.823122,-1.0163 0.460536,-0.54462 0.842215,-0.98865 0.84818,-0.9867 0.01882,0.006 1.754455,1.4737 1.780065,1.50519 0.0011,0.001 0.0024,0.004 0.0035,0.005 z m -4.381474,-7.66808 c 0.0062,0.0111 -0.204776,0.27127 -0.559877,0.69179 -0.313044,0.37064 -0.698895,0.82762 -0.857523,1.0156 -0.15863,0.18797 -0.293269,0.34029 -0.299176,0.33842 -0.02028,-0.007 -1.781627,-1.49674 -1.79264,-1.51669 -0.0085,-0.0143 0.230949,-0.30657 0.847414,-1.03642 0.4722,-0.55902 0.862419,-1.01511 0.867109,-1.01356 0.01784,0.006 1.785943,1.50387 1.794693,1.52086 z m -4.207638,-7.50706 c 0.0013,0.003 0.0016,0.004 0.0016,0.004 -0.0081,0.0251 -1.683573,2.01169 -1.706307,2.02341 -0.01499,0.008 -1.619141,-1.33873 -1.623823,-1.36256 -0.0029,-0.007 0.382824,-0.47082 0.853922,-1.02932 0.624027,-0.73973 0.861755,-1.01269 0.875763,-1.00515 0.01284,0.005 0.376707,0.31189 0.8136,0.68045 0.564522,0.47611 0.767182,0.65338 0.785658,0.68801 z m 10.765097,20.90995 c -0.0096,0.026 -1.612983,1.9169 -1.635028,1.9277 -0.01689,0.01 -0.229153,-0.1636 -0.856186,-0.6927 -0.458641,-0.3871 -0.840583,-0.7154 -0.848811,-0.7298 -0.01178,-0.023 0.0935,-0.1544 0.798467,-0.9888 0.447345,-0.5296 0.818221,-0.9653 0.824304,-0.9684 0.01581,-0.01 1.723134,1.4356 1.717254,1.452 z m -4.248528,-7.47086 c -0.01431,0.0397 -1.669025,1.98284 -1.684416,1.97792 -0.02769,-0.009 -1.814488,-1.51817 -1.830516,-1.54621 -0.01171,-0.0228 0.09897,-0.16056 0.80878,-1.00137 0.452991,-0.53656 0.834177,-0.98154 0.847059,-0.98884 0.01877,-0.0106 0.196284,0.13256 0.9444,0.76386 0.537053,0.45331 0.918333,0.78451 0.914693,0.79464 z m -4.391865,-7.677 c -0.0071,0.0211 -1.681884,2.00781 -1.705681,2.02319 -0.01827,0.0115 -1.748909,-1.43653 -1.761383,-1.47341 -0.0062,-0.0111 0.329874,-0.41857 0.842841,-1.02611 0.467187,-0.55338 0.85849,-1.00716 0.869553,-1.00839 0.02886,-0.003 1.761719,1.46342 1.75467,1.48472 z m -4.014264,-7.36928 c -0.0015,0.0233 -1.721054,2.04573 -1.731493,2.0365 -0.0029,-0.007 -0.195144,-0.16391 -0.419778,-0.35191 -0.224643,-0.18801 -0.410005,-0.3485 -0.412006,-0.35667 -0.0039,-0.007 0.06445,-0.0938 0.147686,-0.1902 0.207966,-0.24092 0.576245,-0.63896 0.864641,-0.93448 0.302948,-0.31047 0.803501,-0.79297 0.830242,-0.8004 0.01928,-0.006 0.721995,0.57653 0.720708,0.59716 z m 10.656429,20.82174 c 0.0078,0.015 -1.593283,1.9288 -1.629597,1.9475 -0.01256,0.01 -1.788962,-1.4778 -1.809824,-1.512 -0.0038,-0.01 0.361272,-0.4513 0.813012,-0.9862 0.45173,-0.5349 0.82596,-0.9711 0.831525,-0.9693 0.0188,0.01 1.78593,1.5027 1.794884,1.52 z m -4.391681,-7.59437 c 0.01105,0.0193 -0.141492,0.2071 -0.822588,1.01404 -0.459763,0.5447 -0.842692,0.98813 -0.850866,0.98536 -0.02415,-0.008 -1.823508,-1.53076 -1.835586,-1.55297 -0.0085,-0.0145 0.221225,-0.29519 0.821699,-1.00618 0.457981,-0.54222 0.84086,-0.98656 0.850979,-0.98759 0.02088,-0.002 1.815987,1.51064 1.836362,1.54734 z m -4.299031,-7.60466 c 0.02111,0.0205 -0.05888,0.11763 -0.838785,1.04114 -0.472281,0.55925 -0.864725,1.01492 -0.872031,1.0126 -0.01757,-0.005 -1.741395,-1.45857 -1.751886,-1.47646 -0.0039,-0.007 0.378307,-0.47103 0.850372,-1.03011 0.481617,-0.57038 0.865887,-1.01408 0.875532,-1.01092 0.02127,0.007 1.708426,1.42916 1.736798,1.46375 z m 10.471924,20.50673 c 0.0064,0.012 -0.757336,0.3612 -1.117484,0.5109 -0.529414,0.2202 -1.372976,0.5277 -1.422303,0.5186 -0.02912,-0.01 -0.376705,-0.2935 -0.394845,-0.3271 -0.0087,-0.015 0.190087,-0.2597 0.765411,-0.9413 0.58812,-0.6967 0.78232,-0.9184 0.799613,-0.9124 0.01937,0.01 1.360699,1.134 1.369608,1.1513 z m -3.862552,-7.053 c -0.0077,0.022 -1.588483,1.8939 -1.621134,1.9201 -0.02159,0.018 -0.04091,0.01 -0.146611,-0.082 -0.878961,-0.7371 -1.662565,-1.4048 -1.667922,-1.4211 -0.0063,-0.012 0.298454,-0.3824 0.787992,-0.963 0.436979,-0.5183 0.807805,-0.9534 0.823914,-0.9667 0.02899,-0.023 0.04672,-0.01 0.929574,0.7358 0.510224,0.4306 0.897607,0.7673 0.894104,0.7769 z m -4.431209,-7.64434 c 0.0039,0.007 -2.43e-4,0.0212 -0.006,0.0292 -0.0069,0.009 -0.379945,0.45067 -0.828412,0.98273 -0.448375,0.53201 -0.822979,0.97237 -0.832349,0.97854 -0.01081,0.008 -0.318565,-0.24244 -0.911534,-0.74124 -0.491962,-0.41385 -0.898385,-0.75869 -0.903367,-0.76627 -0.0056,-0.008 0.368613,-0.46122 0.830137,-1.00802 0.629116,-0.7454 0.844647,-0.99211 0.861349,-0.98608 0.02478,0.009 1.779087,1.48997 1.790058,1.51127 z m 6.629343,13.30934 c -0.0081,0.025 -1.529,1.8237 -1.552235,1.8356 -0.01414,0.01 -0.271348,-0.2013 -0.867384,-0.7036 -0.465965,-0.3926 -0.849102,-0.7205 -0.851187,-0.7286 -0.0039,-0.01 0.34639,-0.4299 0.774546,-0.9373 0.428156,-0.5075 0.784603,-0.9209 0.792147,-0.9188 0.03341,0.01 1.708885,1.4379 1.704113,1.4527 z M 55.384091,986.64545 c 0.002,0.0243 -1.684746,2.02599 -1.710996,2.03008 -0.02048,0.003 -1.603891,-1.32655 -1.613859,-1.3555 -0.006,-0.0102 0.351859,-0.44358 0.843882,-1.0261 0.467799,-0.55386 0.859331,-1.00802 0.870018,-1.00918 0.02511,-0.002 1.608088,1.33408 1.610955,1.3607 z m 6.552518,13.39945 c -0.01317,0.038 -1.625234,1.9365 -1.639994,1.9318 -0.02767,-0.01 -1.830025,-1.535 -1.837296,-1.5557 -0.0074,-0.013 0.270825,-0.3511 0.797665,-0.97548 0.442829,-0.5248 0.814497,-0.95942 0.826152,-0.96543 0.03052,-0.0165 1.864801,1.53251 1.853473,1.56481 z m -4.426644,-7.63405 c -0.0069,0.0212 -1.651634,1.96974 -1.671122,1.97979 -0.01832,0.009 -1.770636,-1.46784 -1.764316,-1.48728 0.0058,-0.009 0.377656,-0.45571 0.833826,-0.99575 0.456144,-0.54003 0.836667,-0.98302 0.845652,-0.98441 0.02423,-0.004 1.762081,1.46863 1.75596,1.48765 z m 6.72307,13.37385 c -0.0104,0.033 -1.552746,1.8479 -1.566497,1.8435 -0.01894,-0.01 -1.785708,-1.4953 -1.796807,-1.5145 -0.004,-0.01 -0.0016,-0.022 0.0047,-0.03 0.0071,-0.01 0.3591,-0.4249 0.78193,-0.9257 0.606297,-0.7181 0.773133,-0.9079 0.789332,-0.8982 0.06567,0.039 1.791531,1.5117 1.787364,1.5247 z M 53.48683,985.03415 c 0.0042,0.009 0.0019,0.0239 -0.0046,0.0319 -0.0071,0.008 -0.39148,0.46346 -0.854011,1.01139 -0.462441,0.54787 -0.847122,0.99711 -0.854914,0.99833 -0.01757,0.003 -0.714841,-0.5831 -0.719196,-0.60402 -0.0039,-0.007 0.06901,-0.12211 0.157316,-0.25312 0.436521,-0.64828 1.397707,-1.90758 1.443167,-1.89075 0.02233,0.009 0.82228,0.68706 0.832187,0.7063 z m 6.322227,13.20658 c -0.0073,0.0226 -1.597667,1.90657 -1.62522,1.92527 -0.01795,0.012 -0.186126,-0.1231 -0.934667,-0.75317 -0.50199,-0.42247 -0.916965,-0.77488 -0.92209,-0.7832 -0.0057,-0.008 -0.0021,-0.0246 0.0013,-0.0335 0.03929,-0.065 1.625165,-1.92663 1.638073,-1.92265 0.0352,0.0111 1.846986,1.5522 1.842147,1.56734 z m -4.334342,-7.56292 c 0.0042,0.009 -0.259641,0.32556 -1.485795,1.77738 -0.102901,0.12186 -0.193343,0.2196 -0.200916,0.21718 -0.0304,-0.01 -1.728519,-1.44953 -1.738619,-1.47446 -0.01056,-0.0211 0.138787,-0.20439 0.820237,-1.01207 0.457214,-0.54187 0.837007,-0.98628 0.844015,-0.9876 0.01257,-0.002 1.74953,1.45716 1.761078,1.47957 z m 6.668648,13.34049 c 0.0017,0.023 -1.530746,1.8425 -1.55543,1.8464 -0.01973,0 -1.772805,-1.4701 -1.79384,-1.5074 -0.01169,-0.023 0.09235,-0.1524 0.75071,-0.9308 0.420955,-0.4977 0.774488,-0.9119 0.785773,-0.9204 0.01209,-0.01 0.03283,-0.01 0.05043,0.01 0.197726,0.1558 1.76094,1.49 1.762493,1.5042 z m 2.788852,6.0005 c -0.0056,0.016 -0.499463,0.1546 -0.501632,0.1403 -0.0028,-0.01 0.05839,-0.085 0.131576,-0.1723 0.07359,-0.088 0.139541,-0.1586 0.146629,-0.1581 0.01867,0 0.227021,0.1787 0.223427,0.1901 z m -7.253506,-13.57782 c -0.01066,0.0325 -1.612386,1.91809 -1.635192,1.92477 -0.01667,0.004 -0.287764,-0.21521 -0.905107,-0.73552 -0.484534,-0.40844 -0.88531,-0.75416 -0.890581,-0.76828 -0.01014,-0.0188 0.169284,-0.23746 0.80473,-0.9898 0.448996,-0.53163 0.821864,-0.96146 0.831179,-0.95832 0.03581,0.0122 1.799631,1.51266 1.794971,1.52715 z m 6.747881,13.15752 c -0.01248,0.035 -0.587284,0.7027 -0.619841,0.7194 -0.144922,0.075 -1.811916,0.3618 -1.889859,0.3255 -0.02656,-0.013 -0.749536,-0.6136 -0.763472,-0.6349 -0.0026,-0 0.0017,-0.018 0.0054,-0.026 0.03479,-0.057 1.552694,-1.8404 1.563815,-1.8366 0.03336,0.012 1.709038,1.4395 1.704413,1.4528 z M 53.430014,988.96162 c 0.0041,0.008 -0.37363,0.46313 -0.832699,1.00672 -0.70658,0.83664 -0.838246,0.98633 -0.857887,0.97481 -0.04873,-0.029 -1.574868,-1.32053 -1.58917,-1.34522 -0.01179,-0.0233 0.09349,-0.15462 0.808523,-1.00146 0.453024,-0.53651 0.834482,-0.98137 0.847582,-0.98867 0.01971,-0.011 0.171179,0.11106 0.822817,0.66111 0.439377,0.37092 0.799733,0.6826 0.800834,0.69271 z m 6.637698,13.29148 c 0.0088,0.016 -1.555775,1.8594 -1.572617,1.8535 -0.02176,-0.01 -1.823561,-1.5288 -1.834592,-1.5488 -0.0057,-0.01 -3.21e-4,-0.029 0.01148,-0.045 0.05679,-0.082 1.522155,-1.8048 1.539553,-1.8097 0.01675,-0 1.839412,1.5172 1.856311,1.55 z m 2.368068,5.6616 c -0.01036,0.033 -1.554069,1.8476 -1.568664,1.8434 -0.02716,-0.01 -1.786428,-1.4967 -1.792779,-1.5169 -0.0043,-0.01 0.342526,-0.4315 0.768394,-0.9358 0.425777,-0.5043 0.780144,-0.9179 0.787369,-0.919 0.01973,-0 1.810486,1.5125 1.80568,1.5283 z m -6.847427,-13.24026 c -0.0017,0.0181 -1.550778,1.87095 -1.613602,1.92738 -0.01076,0.01 -0.02918,0.0129 -0.03997,0.006 -0.03488,-0.0207 -1.720418,-1.44508 -1.729774,-1.46139 -0.0057,-0.008 3.87e-4,-0.0295 0.01203,-0.0462 0.06344,-0.092 1.614405,-1.91437 1.625979,-1.91054 0.03162,0.0103 1.742928,1.46646 1.74495,1.48472 z M 51.533559,987.357 c -3.9e-4,0.0204 -1.665076,1.99584 -1.680203,1.99143 -0.0172,-0.005 -0.27854,-0.2204 -0.289844,-0.23864 -0.0058,-0.009 0.03879,-0.11505 0.09838,-0.23637 0.191602,-0.39031 0.479311,-0.92564 0.711261,-1.32355 0.199858,-0.3428 0.471419,-0.7753 0.484179,-0.771 0.02547,0.008 0.673891,0.56296 0.676225,0.57813 z m 6.387218,13.0828 c 0.02097,0.02 -0.04864,0.1059 -0.751329,0.9377 -0.424771,0.503 -0.780053,0.9193 -0.789321,0.925 -0.01827,0.011 -1.835879,-1.5095 -1.849239,-1.5473 -0.0061,-0.011 0.0036,-0.036 0.01763,-0.054 0.112477,-0.1473 1.513724,-1.79048 1.531065,-1.79551 0.01459,-0.004 0.332899,0.25553 0.921384,0.75197 0.494502,0.41714 0.908524,0.76894 0.919997,0.78174 z m -4.363647,-7.48097 c -0.0085,0.0263 -1.609268,1.91414 -1.633312,1.92597 -0.01941,0.009 -0.198855,-0.13552 -0.888581,-0.71776 -0.475533,-0.40141 -0.86764,-0.73848 -0.871278,-0.74903 -0.0061,-0.0103 0.332987,-0.4215 0.803734,-0.97905 0.445731,-0.52793 0.817046,-0.96324 0.825213,-0.96745 0.01832,-0.009 1.770486,1.46798 1.764224,1.48732 z m 6.78764,13.19177 c -1.94e-4,0.021 -1.511657,1.8161 -1.54776,1.8361 -0.02048,0.011 -0.178347,-0.1162 -0.90603,-0.7289 -0.484798,-0.4084 -0.887985,-0.7541 -0.895987,-0.7684 -0.0127,-0.022 0.09036,-0.15 0.731446,-0.9084 0.833612,-0.9862 0.810381,-0.9592 0.825672,-0.9543 0.02754,0.01 1.791089,1.5082 1.792659,1.5239 z m -4.553372,-7.48276 c 8.52e-4,0.003 0.0014,0.003 0.0016,0.004 -0.01337,0.0354 -1.51794,1.81278 -1.546419,1.82678 -0.01765,0.01 -0.225403,-0.1598 -0.905082,-0.73439 -0.4852,-0.41015 -0.886466,-0.75763 -0.891695,-0.77228 -0.0103,-0.0197 0.150403,-0.2162 0.76369,-0.94262 0.62526,-0.74063 0.778006,-0.91425 0.797855,-0.90683 0.01329,0.005 0.42202,0.34543 0.90787,0.75643 0.688784,0.58265 0.861126,0.73342 0.873346,0.76757 z m -4.269125,-7.43267 c -0.0064,0.0202 -1.632957,1.93728 -1.645241,1.93921 -0.0184,0.003 -1.426204,-1.18566 -1.44464,-1.2202 -0.01013,-0.0188 0.01125,-0.10498 0.06545,-0.26429 0.0442,-0.12995 0.09072,-0.25715 0.103365,-0.28274 0.03027,-0.062 1.284004,-1.54672 1.301574,-1.54167 0.02114,0.006 1.622531,1.36025 1.619495,1.36969 z m 6.747742,13.15723 c -0.01004,0.03 -1.563508,1.8502 -1.575419,1.8463 -0.03051,-0.01 -1.849689,-1.5538 -1.845587,-1.5665 0.0058,-0.01 0.349143,-0.4212 0.770561,-0.9201 0.421495,-0.4989 0.774575,-0.9112 0.784574,-0.9164 0.01003,-0.01 0.03239,0 0.04878,0.015 0.119258,0.094 1.819052,1.5362 1.817128,1.5419 z m 3.127692,6.3014 c 0.0024,0 0.0029,0.01 0.0029,0.01 -0.03379,0.029 -0.892871,0.069 -0.882533,0.042 0.0056,-0.01 0.08862,-0.1144 0.18857,-0.233 0.09997,-0.1185 0.189313,-0.2203 0.198631,-0.2261 0.02245,-0.014 0.456256,0.3497 0.493494,0.4094 z m -0.77432,-0.647 c -0.0021,0.025 -0.559706,0.6938 -0.592352,0.7106 -0.06911,0.036 -1.116901,-0.025 -1.712098,-0.1 l -0.297474,-0.037 -0.268491,-0.2252 c -0.147214,-0.1241 -0.272574,-0.2369 -0.277656,-0.251 -0.0093,-0.019 0.142986,-0.2061 0.664735,-0.8238 0.370728,-0.4389 0.678672,-0.8004 0.684336,-0.8033 0.01256,-0.01 -0.04644,-0.055 0.964936,0.799 0.561268,0.4743 0.835464,0.7143 0.834063,0.7304 z m -6.906603,-13.13989 c -0.0058,0.009 -0.353412,0.42566 -0.778364,0.92827 -0.565525,0.66897 -0.778415,0.91181 -0.794688,0.90661 -0.02793,-0.009 -1.725056,-1.44016 -1.739889,-1.4675 -0.0085,-0.0145 0.202275,-0.27286 0.758991,-0.9319 0.423503,-0.50135 0.779903,-0.91426 0.792054,-0.91767 0.02677,-0.007 1.770674,1.46015 1.761896,1.48219 z m -4.102207,-7.27754 c 0.0013,0.003 0.0016,0.004 0.0026,0.005 -0.0046,0.0155 -0.495077,0.60174 -0.574714,0.68734 -0.02319,0.0246 -0.04141,0.0382 -0.04189,0.0311 -0.0028,-0.006 0.03252,-0.0944 0.07315,-0.19329 0.121658,-0.29384 0.307973,-0.70831 0.321629,-0.71535 0.01665,-0.009 0.202922,0.14934 0.221233,0.18487 z m 6.513207,12.96873 c -0.0046,0.011 -0.353633,0.4305 -0.778475,0.9339 -0.579824,0.6871 -0.777281,0.9126 -0.792092,0.9043 -0.03857,-0.022 -1.818297,-1.5282 -1.829438,-1.5486 -0.0087,-0.015 0.191977,-0.2617 0.765343,-0.941 0.585689,-0.6939 0.78243,-0.9184 0.799562,-0.9125 0.04607,0.016 1.841078,1.5452 1.8351,1.5639 z m 2.419627,5.6921 c -0.0079,0.021 -1.338412,1.5952 -1.356318,1.6044 -0.0087,0 -0.03802,-0.012 -0.06895,-0.036 -0.123448,-0.094 -1.741506,-1.4675 -1.743915,-1.48 0.460045,-0.6335 0.890427,-1.0385 1.356867,-1.6128 0.0255,-0.014 1.822297,1.4974 1.812231,1.5241 z m -6.874485,-13.1046 c -0.0069,0.0215 -1.522048,1.82055 -1.547227,1.83715 -0.01827,0.0115 -1.749475,-1.43622 -1.761502,-1.47325 -0.0062,-0.0113 0.296211,-0.37937 0.762031,-0.93194 0.422807,-0.50147 0.777402,-0.91459 0.788076,-0.91802 0.02629,-0.008 1.766487,1.46164 1.758622,1.48606 z m 2.324747,5.6121 c -0.0084,0.027 -1.527431,1.8224 -1.551663,1.8349 -0.01499,0.01 -0.272622,-0.2022 -0.915944,-0.7455 -0.492438,-0.4158 -0.897281,-0.7598 -0.900104,-0.7642 -0.0026,-0 0.0029,-0.016 0.008,-0.023 0.0071,-0.01 0.358081,-0.4237 0.779793,-0.9232 0.421629,-0.49945 0.773399,-0.90762 0.78164,-0.90696 0.02965,0.002 1.803825,1.51056 1.798082,1.52846 z m 2.457667,5.7316 c 8.6e-4,0 0.0014,0 0.0016,0 -0.01632,0.034 -1.351316,1.6137 -1.361095,1.6105 -0.02029,-0.01 -1.844417,-1.5519 -1.847226,-1.5647 -0.0029,-0.01 0.302765,-0.3771 0.676731,-0.8201 0.373957,-0.4431 0.68673,-0.8036 0.694929,-0.8012 0.01088,8e-4 0.427439,0.3525 0.931498,0.7779 0.713842,0.6025 0.893062,0.7588 0.904909,0.7924 z m -6.818661,-13.07394 c -6.18e-4,0.0192 -1.539014,1.84754 -1.559041,1.85065 -0.01058,0.001 -0.3476,-0.27026 -0.361307,-0.29127 -0.0013,-0.003 -0.0038,-0.0208 7e-4,-0.0413 0.0015,-0.11797 0.179891,-1.05711 0.289904,-1.52493 0.125924,-0.53533 0.288146,-1.12684 0.307322,-1.12071 0.02252,0.007 1.323084,1.11338 1.32525,1.127 z m 2.2684,5.5709 c 0.0076,0.0143 -0.240518,0.31625 -0.762017,0.93423 -0.4228,0.50101 -0.775034,0.91451 -0.782773,0.91841 -0.01723,0.01 -1.769787,-1.46838 -1.76403,-1.4877 0.0066,-0.009 0.352639,-0.42696 0.778283,-0.93128 0.42566,-0.50433 0.781279,-0.91465 0.790295,-0.91187 0.03148,0.01 1.733508,1.45532 1.740242,1.47821 z m 5.398196,11.45274 c 8.6e-4,0 0.0026,0 0.0028,0.01 0.0016,0 -0.03011,0 -0.06256,-0.01 -0.04965,-0.015 -0.05727,-0.021 -0.04542,-0.039 0.0074,-0.012 0.02273,-0.021 0.03285,-0.02 0.01989,0 0.06602,0.04 0.07385,0.059 l 0,0 z m -2.97405,-5.7506 c -0.01298,0.04 -1.356248,1.614 -1.373039,1.6086 -0.02654,-0.01 -1.83724,-1.5358 -1.841838,-1.5535 -0.0039,-0.01 0.302219,-0.3773 0.676176,-0.8204 0.374612,-0.4438 0.687457,-0.8029 0.696901,-0.7999 0.03535,0.011 1.846535,1.5503 1.8418,1.5652 z m 2.607949,5.4442 c 0.0079,0.016 -0.114831,0.1799 -0.148727,0.1973 -0.04501,0.023 -1.038148,-0.2794 -1.479523,-0.4509 -0.509523,-0.198 -0.904791,-0.3761 -0.8959,-0.4039 0.0046,-0.011 0.163546,-0.205 0.356422,-0.4333 0.192951,-0.2283 0.359393,-0.4161 0.369779,-0.4172 0.01805,-0 1.775758,1.4725 1.797949,1.508 z m -7.062815,-12.85666 c -0.0053,0.0178 -1.523778,1.81898 -1.549436,1.83831 -0.01981,0.0145 -0.757118,-0.59623 -0.788386,-0.65282 -0.01162,-0.0178 -0.02138,-0.2871 -0.02585,-0.59764 -0.0077,-0.56854 0.01389,-1.31489 0.04041,-1.39538 0.01349,-0.0397 0.525805,-0.66171 0.559792,-0.67922 0.0084,-0.004 0.02137,-0.002 0.03015,0.005 0.0018,0.01 0.403065,0.33987 0.876886,0.7394 0.473836,0.39952 0.859308,0.73335 0.856548,0.7419 z m 2.324076,5.61366 c -0.01099,0.034 -1.357409,1.615 -1.371424,1.6107 -0.01882,-0.01 -1.784729,-1.494 -1.79562,-1.5133 -0.0016,-0.01 0.0033,-0.027 0.01458,-0.043 0.217318,-0.2729 1.343726,-1.5854 1.356979,-1.5812 0.03554,0.012 1.800156,1.5118 1.795258,1.5267 z m 2.655282,5.4855 c 0.0082,0.017 0.0209,0 -0.432208,0.5377 -0.254216,0.3007 -0.347936,0.4027 -0.366117,0.3987 -0.04161,-0.01 -0.502864,-0.2706 -0.773126,-0.4383 -0.414574,-0.2571 -0.694692,-0.456 -1.201885,-0.8534 -0.01771,-0.014 -0.03528,-0.034 -0.03856,-0.044 -0.0043,-0.01 0.202989,-0.2672 0.466001,-0.5791 0.259964,-0.3081 0.481806,-0.5647 0.4928,-0.5703 0.01414,-0.01 0.294955,0.2224 0.932815,0.7618 0.502035,0.4246 0.916154,0.7789 0.920383,0.7871 z m -7.014155,-12.83048 c 0.0017,0.009 -0.114745,0.15737 -0.196429,0.24441 -0.04038,0.0429 -0.0404,0.0428 -0.03971,0.006 -0.0036,-0.0197 0.0095,-0.12005 0.02154,-0.22152 0.01207,-0.10149 0.0289,-0.18168 0.03782,-0.17846 0.01776,0.006 0.169135,0.134 0.177163,0.14951 z m 2.266505,5.57418 c 0.01048,0.021 -1.319195,1.6051 -1.353846,1.6159 -0.02596,0.01 -0.50623,-0.397 -0.535378,-0.4515 -0.01262,-0.023 -0.05816,-0.1617 -0.101742,-0.3075 -0.04358,-0.1458 -0.08811,-0.3283 -0.09981,-0.4052 -0.01413,-0.077 -0.04393,-0.1928 -0.06688,-0.2584 -0.04029,-0.1055 -0.13535,-0.5165 -0.192214,-0.8379 l -0.0204,-0.115 0.306051,-0.3623 c 0.168288,-0.19933 0.312765,-0.36028 0.320916,-0.35762 0.02924,0.01 1.736854,1.45892 1.742879,1.47962 z m 2.614584,5.456 c 0.0062,0.011 -0.159772,0.2179 -0.429963,0.5379 -0.582026,0.6893 -0.52657,0.6276 -0.551754,0.6126 -0.01358,-0.01 -0.10842,-0.092 -0.214257,-0.1891 -0.40192,-0.3676 -0.872654,-0.8742 -1.216954,-1.3099 -0.0915,-0.1163 -0.17547,-0.2219 -0.1863,-0.2347 -0.0077,-0.015 -0.02512,-0.028 -0.029,-0.036 -0.0054,-0.01 0.167809,-0.2219 0.383524,-0.4775 0.215642,-0.2554 0.398283,-0.4623 0.405796,-0.4596 0.02218,0.01 1.827763,1.5374 1.837695,1.5567 z m 2.185816,5.1773 c 0.0011,0 0.0014,0 0.0018,0.01 0.0014,0 -0.0058,0.01 -0.0095,0.012 -0.01452,0.011 -0.238794,0.1018 -0.49775,0.2024 -1.263286,0.4915 -2.541322,1.0337 -3.780425,1.6039 -0.833097,0.3834 -1.103062,0.515 -2.247078,1.0959 -1.441079,0.7318 -2.335663,1.2178 -3.419086,1.8576 -0.406559,0.2406 -0.821014,0.498 -1.218457,0.7374 -0.0012,-0 0.09942,-0.262 0.223457,-0.5769 1.523386,-3.8662 2.728656,-7.7487 3.415555,-11.0024 0.03859,-0.1833 0.07507,-0.3357 0.08077,-0.3386 0.0084,-0 0.02362,0.02 0.04013,0.05 0.05845,0.1136 0.325648,0.5644 0.460617,0.7794 1.326567,2.1016 3.182946,3.7876 5.394896,4.8997 0.423244,0.2129 0.991675,0.4593 1.413122,0.6128 0.09349,0.034 0.132682,0.05 0.141699,0.061 l 0,0 z m -6.829638,-12.3445 c -0.0051,0.0176 -0.382723,0.46255 -0.398765,0.47082 -0.01673,0.009 -0.01528,0.0165 -0.04416,-0.23911 -0.03585,-0.28429 -0.07096,-0.64124 -0.06483,-0.66214 0.0064,-0.0103 0.119957,0.0814 0.260293,0.20015 0.140259,0.11876 0.253645,0.22186 0.250928,0.2297 z m 2.520021,5.3796 c -0.0047,0.015 -0.7041,0.8453 -0.718473,0.8527 -0.0084,0 -0.0281,-0.021 -0.04992,-0.054 -0.108066,-0.1568 -0.379637,-0.5812 -0.484656,-0.7585 -0.12363,-0.2091 -0.626236,-1.1947 -0.672388,-1.3251 l -0.02809,-0.076 0.06551,-0.083 c 0.03575,-0.045 0.07221,-0.084 0.08054,-0.085 0.02024,-0 1.81321,1.5111 1.808118,1.5276 z m -2.09057,-1.7773 c 0.0019,0.01 0.0041,0.022 -0.009,0.028 -0.01296,0.01 -0.02019,-0 -0.02538,-0.02 -0.01089,-0.014 0.0028,-0.03 0.0089,-0.029 0.01187,0 0.02114,0.011 0.02554,0.021 z"
       fill="#000000"
       id="path9" />
    <path
       style="color:#000000;font-style:normal;font-variant:normal;font-weight:normal;font-stretch:normal;font-size:medium;line-height:normal;font-family:sans-serif;text-indent:0;text-align:start;text-decoration:none;text-decoration-line:none;text-decoration-style:solid;text-decoration-color:#000000;letter-spacing:normal;word-spacing:normal;text-transform:none;direction:ltr;block-progression:tb;writing-mode:lr-tb;baseline-shift:baseline;text-anchor:start;white-space:normal;clip-rule:nonzero;display:inline;overflow:visible;visibility:visible;opacity:1;isolation:auto;mix-blend-mode:normal;color-interpolation:sRGB;color-interpolation-filters:linearRGB;solid-color:#000000;solid-opacity:1;fill:#ffffff;fill-opacity:1;fill-rule:evenodd;stroke:none;stroke-width:16;stroke-linecap:butt;stroke-linejoin:miter;stroke-miterlimit:4;stroke-dasharray:none;stroke-dashoffset:0;stroke-opacity:1;color-rendering:auto;image-rendering:auto;shape-rendering:auto;text-rendering:auto;enable-background:accumulate"
       d="m 54.034287,957.36215 c 0.703936,0.59275 1.553382,1.07676 2.17204,1.58967 0.521043,0.43792 0.938682,0.96024 1.184196,1.74816 0.01394,-0.006 0.02674,-0.013 0.04075,-0.0193 0.644936,-0.29143 1.43457,-0.54682 2.042334,-0.27423 0.650311,0.29167 1.025864,1.11337 1.268512,1.84827 1.606319,-0.23422 2.91419,0.12023 4.206764,0.44888 -2.97765,2.69258 -5.919581,5.35783 -8.321759,7.53044 l -0.306188,0.62593 c -0.07955,0.2639 -0.187406,0.55456 -0.26957,0.78877 -0.0018,0.004 -1.54e-4,-8.3e-4 -0.0014,0.003 -0.306526,0.61425 -0.902734,1.02641 -1.567382,1.08352 -0.670306,0.0575 -1.308742,-0.25487 -1.674827,-0.8193 -0.362702,-0.55979 -0.424265,-1.29397 -0.106389,-1.9023 0.132135,-0.25465 0.317241,-0.49751 0.457879,-0.69998 l 0.355647,-0.72703 c 0.109066,-3.74332 0.333171,-7.4829 0.519341,-11.22414 z m 2.017076,14.28656 c 0.27874,-0.55861 -0.0012,0.003 -0.0012,0.003 -3e-5,-1.7e-4 0.0014,-0.002 0.0012,-0.003 -3.1e-5,-1.7e-4 -3.1e-5,-1.7e-4 -6.2e-5,-3.4e-4 z m 2.244609,-3.31751 -0.980028,-0.47941 -1.308176,1.75585 0.569679,0.27868 z m -1.246119,-0.60958 -0.778461,-0.38081 -0.945692,1.93318 0.415977,0.20349 z m -1.039981,-0.50874 -0.90619,-0.4433 -0.462394,2.16961 0.422892,0.20687 z m -1.175757,-0.57516 -0.943572,-0.46159 -0.08185,2.35576 0.563011,0.27541 z m 1.531214,3.46894 -2.638609,-1.29076 -0.186941,0.38216 2.638593,1.29076 z"
       id="path11" />
  </g>
</svg>
