<?xml version="1.0" encoding="UTF-8" standalone="no"?>
<svg
   version="1.1"
   x="0px"
   y="0px"
   viewBox="0 0 100 125"
   enable-background="new 0 0 100 100"
   xml:space="preserve"
   id="svg345"
   sodipodi:docname="noun-volleyball.svg"
   inkscape:version="1.2.2 (b0a8486541, 2022-12-01)"
   xmlns:inkscape="http://www.inkscape.org/namespaces/inkscape"
   xmlns:sodipodi="http://sodipodi.sourceforge.net/DTD/sodipodi-0.dtd"
   xmlns="http://www.w3.org/2000/svg"
   xmlns:svg="http://www.w3.org/2000/svg"><defs
     id="defs349" /><sodipodi:namedview
     id="namedview347"
     pagecolor="#ffffff"
     bordercolor="#000000"
     borderopacity="0.25"
     inkscape:showpageshadow="2"
     inkscape:pageopacity="0.0"
     inkscape:pagecheckerboard="0"
     inkscape:deskcolor="#d1d1d1"
     showgrid="false"
     inkscape:zoom="6.304"
     inkscape:cx="14.27665"
     inkscape:cy="62.658629"
     inkscape:window-width="1920"
     inkscape:window-height="1011"
     inkscape:window-x="0"
     inkscape:window-y="0"
     inkscape:window-maximized="1"
     inkscape:current-layer="svg345" /><path
     d="M81.487,18.113C73.05,9.676,61.834,5.03,49.904,5.03c-11.931,0-23.148,4.646-31.583,13.083  C9.883,26.549,5.237,37.766,5.237,49.697c0,11.93,4.646,23.146,13.083,31.583c8.436,8.436,19.652,13.082,31.583,13.082  c11.93,0,23.146-4.646,31.583-13.082c8.438-8.438,13.082-19.653,13.082-31.583C94.569,37.766,89.925,26.549,81.487,18.113z   M90.573,53.244c-0.989-6.812-3.511-16.467-9.879-24.496c3.921-0.033,6.833,0.541,7.664,0.726  c3.251,6.162,4.975,13.059,4.975,20.223c0,4.562-0.699,9.016-2.048,13.241C91.283,60.528,91.14,57.148,90.573,53.244z   M87.575,28.054c-2.415-0.434-7.826-1.086-14.097,0.206c-4.908,1.012-9.308,3.013-13.08,5.949  c-4.632,3.608-8.309,8.641-10.94,14.957c-1.312,0.28-6.932,1.285-13.679-0.384c-2.053-0.508-4.023-1.217-5.901-2.119  c2.917-8.729,7.006-15.901,12.161-21.323c4.192-4.411,9.096-7.681,14.577-9.724c8.773-3.268,16.27-2.31,17.231-2.167  c2.407,1.598,4.676,3.447,6.766,5.538C83.359,21.731,85.688,24.78,87.575,28.054z M6.499,51.141  c3.417,5.952,7.972,10.648,13.567,13.976c5.008,2.979,10.849,4.871,17.363,5.627c2.26,0.262,4.447,0.365,6.498,0.365  c6.353,0,11.39-0.999,13.222-1.418c0.11,3.253-0.28,6.588-1.178,9.962c-0.564,2.118-1.279,4.064-2.029,5.784  c-1.287,0.197-6.323,0.871-12.828,0.331c-6.912-0.576-16.943-2.676-25.511-9.42C9.975,69.134,6.8,60.387,6.499,51.141z   M22.762,43.555c3.749,3.103,8.028,5.265,12.721,6.426c3.032,0.75,5.825,0.985,8.138,0.985c2.993,0,5.18-0.394,6.042-0.58  c3.83,4.772,6.225,9.955,7.114,15.414c0.141,0.872,0.242,1.751,0.31,2.638c-2.027,0.479-10.117,2.167-19.515,1.078  c-6.339-0.735-12.016-2.571-16.873-5.461c-6.022-3.583-10.8-8.811-14.208-15.536c0.186-7.01,2.026-13.738,5.332-19.738  C14.675,34.938,18.351,39.905,22.762,43.555z M57.154,80.014c1.311-4.906,1.595-9.744,0.845-14.385  c-0.92-5.687-3.404-11.077-7.383-16.029c2.542-6.087,6.08-10.932,10.52-14.397c0.42-0.328,0.852-0.645,1.288-0.948  c5.896,6.47,10.012,13.28,12.228,20.244c1.806,5.673,2.366,11.466,1.666,17.218c-1.115,9.177-5.137,15.354-5.691,16.168  c-5.937,3.231-12.577,5.033-19.493,5.224C52.508,91.122,55.453,86.38,57.154,80.014z M71.49,11.992  c-3.168-0.146-8.825,0.063-15.246,2.443c-5.668,2.102-10.74,5.473-15.07,10.021c-5.26,5.522-9.434,12.8-12.411,21.643  c-1.835-0.976-3.578-2.143-5.213-3.496c-2.438-2.018-4.645-4.459-6.607-7.296c4.376-10.978,12.016-18.227,17.683-22.384  c5.802-4.258,10.765-6.229,11.441-6.488c1.269-0.111,2.548-0.169,3.837-0.169C57.601,6.266,64.991,8.257,71.49,11.992z   M19.193,18.986c6.262-6.262,14.101-10.373,22.62-11.969c-2.094,1.073-4.86,2.669-7.884,4.885  c-5.674,4.157-13.28,11.335-17.816,22.164c-1.296-2.019-2.475-4.225-3.533-6.608C14.403,24.409,16.616,21.564,19.193,18.986z   M18.971,80.178c7.762,4.707,16.071,6.329,22.08,6.823c1.847,0.153,3.569,0.212,5.123,0.212c3.264,0,5.784-0.258,7.159-0.438  c-1.6,3.356-3.208,5.64-3.734,6.348c-11.487-0.079-22.274-4.584-30.406-12.716C19.119,80.331,19.046,80.255,18.971,80.178z   M80.613,80.406c-2.37,2.372-4.969,4.433-7.744,6.169c1.489-2.698,3.826-7.824,4.668-14.648c0.733-5.936,0.162-11.912-1.695-17.763  c-2.252-7.099-6.414-14.026-12.375-20.6c3.06-1.937,6.482-3.309,10.213-4.084c1.917-0.397,3.76-0.602,5.461-0.687  c6.622,7.94,9.206,17.74,10.205,24.596c1.038,7.13,0.627,12.624,0.575,13.236C87.769,71.711,84.637,76.385,80.613,80.406z"
     id="path339"
     style="fill:#ffffff" /></svg>
