<?xml version="1.0" encoding="UTF-8" standalone="no"?>
<svg
   version="1.1"
   viewBox="-5.0 -10.0 110.0 135.0"
   id="svg456"
   sodipodi:docname="noun-animal.svg"
   inkscape:version="1.2.2 (b0a8486541, 2022-12-01)"
   xmlns:inkscape="http://www.inkscape.org/namespaces/inkscape"
   xmlns:sodipodi="http://sodipodi.sourceforge.net/DTD/sodipodi-0.dtd"
   xmlns="http://www.w3.org/2000/svg"
   xmlns:svg="http://www.w3.org/2000/svg">
  <defs
     id="defs460" />
  <sodipodi:namedview
     id="namedview458"
     pagecolor="#ffffff"
     bordercolor="#000000"
     borderopacity="0.25"
     inkscape:showpageshadow="2"
     inkscape:pageopacity="0.0"
     inkscape:pagecheckerboard="0"
     inkscape:deskcolor="#d1d1d1"
     showgrid="false"
     inkscape:zoom="5.837037"
     inkscape:cx="54.993655"
     inkscape:cy="67.67132"
     inkscape:window-width="1920"
     inkscape:window-height="1011"
     inkscape:window-x="0"
     inkscape:window-y="0"
     inkscape:window-maximized="1"
     inkscape:current-layer="svg456" />
  <path
     d="m70.688 58.859c-4.2031-1.5625-1.9844-6-3.5469-9.4844-3.6094-12.172-19.422-16.562-28.828-8.2344-4.0547 3.4844-6.3438 8.5938-6.25 13.938 0.019531 1.7148-1.0742 3.2422-2.7031 3.7812-3.875 1.3711-7.1602 4.0352-9.3086 7.543-2.1445 3.5078-3.0156 7.6484-2.4727 11.723 0.57812 4.375 2.7422 8.3867 6.0859 11.266 3.3477 2.8828 7.6328 4.4297 12.047 4.3516 4.4141-0.078126 8.6406-1.7773 11.883-4.7734 1.3672-1.2344 3.4453-1.2344 4.8125 0 10.422 9.9062 28.266 3.4219 30.016-10.844 0.54688-4.0703-0.32031-8.2031-2.457-11.711-2.1367-3.5078-5.4102-6.1719-9.2773-7.5547z"
     id="path442"
     style="fill:#ffffff" />
  <path
     d="m89.219 33.328c-5.6875-7.2969-14.062 3.5312-15.109 9.375-0.69141 2.3711-0.38281 4.9219 0.85938 7.0547 1.2383 2.1367 3.3008 3.668 5.7031 4.2422 11.734 2.25 13.75-13.172 8.5469-20.672z"
     id="path444"
     style="fill:#ffffff" />
  <path
     d="m24.891 50.109c3.8281-6.3594-1.2344-14.938-6.8906-18.438-8.5469-4.2031-11.219 9.8906-9.375 15.703 1.5781 7.6094 12.312 9.4062 16.266 2.7344z"
     id="path446"
     style="fill:#ffffff" />
  <path
     d="m63.609 31.953c12.953-0.70312 11.266-17.328 3.9531-24.062-2.2188-2.1094-5.7031-2.1094-7.9219 0-7.3281 6.75-9.0625 23.359 3.9688 24.062z"
     id="path448"
     style="fill:#ffffff" />
  <path
     d="m36.391 31.953c13.031-0.64062 11.297-17.312 3.9688-24.062-2.2188-2.1094-5.7031-2.1094-7.9219 0-7.3125 6.7344-9 23.359 3.9531 24.062z"
     id="path450"
     style="fill:#ffffff" />
</svg>
